<?xml version="1.0" standalone="no"?>
<!DOCTYPE svg PUBLIC "-//W3C//DTD SVG 20010904//EN"
 "http://www.w3.org/TR/2001/REC-SVG-20010904/DTD/svg10.dtd">
<svg version="1.0" xmlns="http://www.w3.org/2000/svg"
 width="1024.000000pt" height="1024.000000pt" viewBox="0 0 1024.000000 1024.000000"
 preserveAspectRatio="xMidYMid meet">

<g transform="translate(0.000000,1024.000000) scale(0.100000,-0.100000)"
fill="#000000" stroke="none">
<path d="M4670 8032 c-432 -637 -1076 -1582 -1084 -1590 -2 -2 -58 32 -123 75
-225 151 -654 426 -657 422 -2 -2 -115 -227 -251 -499 -136 -272 -249 -497
-252 -500 -5 -5 -219 105 -423 218 -190 106 -396 230 -683 414 -137 87 -252
158 -256 158 -11 0 -15 -93 -96 -1895 -14 -313 -37 -805 -50 -1091 -22 -476
-23 -527 -9 -580 78 -301 486 -490 1345 -624 371 -58 733 -96 1234 -129 2054
-137 4337 -30 5346 249 215 60 425 149 531 226 75 55 159 153 191 224 29 62
30 71 29 190 -1 69 -6 226 -12 350 -6 124 -19 439 -30 700 -84 2011 -100 2384
-105 2388 -2 2 -99 -55 -216 -128 -351 -219 -513 -317 -703 -425 -168 -95
-443 -245 -451 -245 -4 0 -249 478 -409 797 -53 106 -100 194 -104 197 -8 5
-254 -149 -585 -366 -93 -61 -175 -111 -184 -112 -8 0 -45 44 -87 104 -39 58
-192 283 -340 500 -522 765 -762 1118 -934 1370 -95 140 -176 256 -180 257 -4
1 -207 -293 -452 -655z m507 206 c27 -40 326 -478 663 -973 338 -495 651 -954
696 -1020 46 -66 192 -281 326 -478 158 -233 252 -364 270 -373 15 -8 39 -14
54 -14 44 0 690 289 954 427 288 151 612 338 857 495 67 43 124 78 126 78 2 0
7 -80 11 -177 11 -287 85 -2038 101 -2403 8 -184 15 -394 15 -466 0 -129 0
-131 -31 -177 -41 -62 -46 -64 -62 -24 -45 106 -258 207 -607 286 -684 155
-2093 241 -3735 228 -705 -6 -882 -11 -1450 -42 -1306 -72 -2058 -214 -2248
-425 -21 -22 -37 -50 -37 -62 0 -21 -1 -20 -31 8 -17 16 -38 43 -45 61 -22 51
-25 -27 66 1958 10 237 27 608 36 825 9 217 18 397 20 398 1 2 41 -22 89 -53
322 -209 583 -358 940 -535 231 -114 720 -336 847 -385 56 -21 106 -15 135 18
11 12 123 173 248 357 270 396 416 610 775 1135 348 508 445 651 723 1062 128
188 235 342 238 343 4 0 29 -33 56 -72z m-1997 -1779 c154 -100 280 -185 280
-191 0 -7 -404 -615 -435 -656 -3 -3 -525 225 -533 233 -4 4 398 795 403 795
3 0 130 -81 285 -181z m4370 -212 c110 -213 200 -391 200 -396 0 -6 -429 -203
-520 -239 -9 -3 -443 638 -444 657 -1 14 541 372 557 368 4 -1 98 -177 207
-390z m-1290 -2827 c1336 -47 2307 -162 2601 -308 119 -60 117 -75 -18 -132
-434 -183 -1930 -310 -3658 -312 -1939 -1 -3486 137 -3857 345 -21 11 -38 26
-38 32 0 47 184 117 447 171 563 114 1527 189 2788 218 259 6 1437 -4 1735
-14z"/>
<path d="M5062 6995 c-23 -17 -92 -105 -387 -495 -189 -251 -336 -444 -600
-793 -153 -203 -165 -221 -165 -260 1 -23 6 -52 13 -63 7 -12 80 -102 162
-199 83 -98 200 -237 260 -309 61 -72 238 -284 394 -471 156 -187 293 -348
305 -357 11 -10 35 -20 52 -24 63 -12 91 12 295 252 106 126 342 405 524 619
450 530 425 498 425 546 0 22 -5 50 -11 61 -20 37 -1120 1472 -1142 1490 -27
22 -95 23 -125 3z m58 -789 l0 -544 -22 -5 c-13 -3 -201 -40 -418 -82 -217
-42 -425 -82 -462 -89 -38 -7 -68 -11 -68 -8 0 6 159 218 505 672 136 179 293
387 349 462 55 75 104 137 109 137 4 1 7 -244 7 -543z"/>
</g>
</svg>
